<mxfile host="app.diagrams.net" modified="2023-09-26T06:31:09.963Z" agent="Mozilla/5.0 (Windows NT 10.0; Win64; x64; rv:109.0) Gecko/20100101 Firefox/115.0" version="21.8.2" etag="3Mg5mBQXZ_B3rhzJfro_" type="github">
  <diagram name="Page-1" id="KhZnsScXWyONfPiFsiaB">
    <mxGraphModel>
      <root>
        <mxCell id="0" />
        <mxCell id="1" parent="0" />
      </root>
    </mxGraphModel>
  </diagram>
</mxfile>
